<svg xmlns="http://www.w3.org/2000/svg" aria-hidden="true" style="position:absolute;width:0;height:0;overflow:hidden">
  <defs>
    <symbol id="navigation-line" viewBox="0 0 823 32">
      <path fill="#ffbe99" d="M694.889 8h102.444v16H694.889V8z" style="fill:var(--color1, #ffbe99)"/>
      <path fill="none" stroke="#000" stroke-width="2.667" d="M694.889 14.667h94.444" style="stroke:var(--color2, #000)"/>
      <path fill="#fff" stroke="#262626" stroke-width="2.667" d="M821.333 16c0 8.1-6.567 14.667-14.667 14.667S791.999 24.101 791.999 16c0-8.1 6.567-14.667 14.667-14.667S821.333 7.899 821.333 16z" style="fill:var(--color3, #fff);stroke:var(--color4, #262626)"/>
      <path fill="#ffbe99" d="M556.444 8h125.111v16H556.444V8z" style="fill:var(--color1, #ffbe99)"/>
      <path fill="none" stroke="#000" stroke-width="2.667" d="M556.444 14.667h117.112" style="stroke:var(--color2, #000)"/>
      <path fill="#ffbe99" d="M418 8h125.111v16H418V8z" style="fill:var(--color1, #ffbe99)"/>
      <path fill="none" stroke="#000" stroke-width="2.667" d="M418 14.667h117.111" style="stroke:var(--color2, #000)"/>
      <path fill="#ffbe99" d="M279.556 8h125.111v16H279.556V8z" style="fill:var(--color1, #ffbe99)"/>
      <path fill="none" stroke="#000" stroke-width="2.667" d="M279.556 14.667h117.111" style="stroke:var(--color2, #000)"/>
      <path fill="#ffbe99" d="M141.111 8h125.111v16H141.111V8z" style="fill:var(--color1, #ffbe99)"/>
      <path fill="none" stroke="#000" stroke-width="2.667" d="M141.111 14.667h117.112" style="stroke:var(--color2, #000)"/>
      <path fill="#ffbe99" d="M21.333 8h106.444v16H21.333V8z" style="fill:var(--color1, #ffbe99)"/>
      <path fill="none" stroke="#000" stroke-width="2.667" d="M21.333 14.667h98.444" style="stroke:var(--color2, #000)"/>
      <path fill="#fff" stroke="#262626" stroke-width="2.667" d="M30.667 16c0 8.1-6.567 14.667-14.667 14.667S1.333 24.101 1.333 16C1.333 7.9 7.899 1.333 16 1.333S30.667 7.899 30.667 16z" style="fill:var(--color3, #fff);stroke:var(--color4, #262626)"/>
    </symbol>
    <symbol id="testimonials-avatar-1" viewBox="0 0 33 32">
      <path fill="#262626" d="M18.555 2.743c.215.337.368.706.368 1.104 0 .46-.092.92-.429 1.258.798-.031 1.564-.031 2.331.123.675.123 1.35.337 1.994.614l1.288.675c.245.184.491.368.675.583a3.87 3.87 0 0 1 1.166 2.025c.092.521.061 1.074-.153 1.564-.061.123-.215.184-.337.092a12.366 12.366 0 0 0-1.656-2.423l-.521-.521a1.88 1.88 0 0 1-.43-.031l-.215-.123-.276-.215-.092-.061c-.031.123-.061.245-.153.337-.031.061-.123.092-.184.092l-.153-.061-.215-.061a16.297 16.297 0 0 0-4.693.123h-.307l-.614-.184.031.276.061.429v.123c-.031.123-.031.215-.092.307l-.215.429a10.712 10.712 0 0 0-.92 2.454c-.031.061-.061.153-.123.184l-.245.031-.123.031c.153.276.153.583.153.89-.031.368-.061.798-.276 1.135.276.368.337.89.337 1.35l.061.184c.303.508.56 1.042.767 1.595a16.58 16.58 0 0 1 .951 3.957l-.092.031c-.215.307-.614.46-.982.46-.337 0-.614-.123-.89-.307l.031.092.123.46c.031.092.092.184.031.276-.031.092-.153.153-.245.184a3.062 3.062 0 0 1-1.288.184c-.675-.061-1.319-.245-1.871-.644l.245.613.031.061.092.215c0 .061 0 .092-.061.123a1.525 1.525 0 0 1-.828-.031c-.307-.092-.614-.215-.859-.46-.276-.245-.46-.583-.583-.92-.092-.276-.184-.583-.184-.89a.954.954 0 0 1-.399.184.942.942 0 0 1-.706-.092 1.689 1.689 0 0 1-.675-.552l-.215-.399c-.031-.061 0-.123.031-.153l.031-.061.123.061.153.092a1.2 1.2 0 0 0 1.227-.215.887.887 0 0 0 .307-.706c-.031-.368-.184-.706-.368-1.012l-.429-.583a5.102 5.102 0 0 1-1.012-1.871c-.184-.583-.153-1.196-.031-1.779v-.245c-.123-.215-.184-.429-.245-.675-.061-.46.031-.951.153-1.411a5.058 5.058 0 0 1 1.503-2.362 22.05 22.05 0 0 1 1.472-1.012l.859-.583c.307-.276.614-.614.828-.982.276-.429.491-.89.675-1.35a4.39 4.39 0 0 1 1.012-1.564c.184-.153.368-.337.583-.46.245-.123.46-.245.706-.276a3.255 3.255 0 0 1 1.902.153c.441.151.84.403 1.166.736.307.368.583.767.675 1.288.061-.215.123-.399.123-.614a3.637 3.637 0 0 0-.276-1.135l-.061-.061-.215-.399-.061-.123-.123-.184c.399.031.675.307.859.614zm-7.915 5.46c.368-.429.736-.859 1.012-1.38l-.491.521c-.307.276-.644.46-.982.675l-.337.215-.092.031c-.399.245-.828.521-1.166.828-.675.583-1.135 1.38-1.35 2.239-.092.46-.153.951-.031 1.411.184-.552.46-1.104.767-1.595A10.82 10.82 0 0 1 9.381 9.43l.583-.583.675-.644z" style="fill:var(--color4, #262626)"/>
      <path fill="#262626" d="M19.444 5.535a9.514 9.514 0 0 1 2.577.46 6.167 6.167 0 0 1 3.068 1.994 5.551 5.551 0 0 1 1.074 2.638c.166 1.025.186 2.068.061 3.098l-.153 1.043-.123.614c-.031.061-.031.061-.092.061-.061-.123-.061-.245-.061-.368-.031-.46.031-.89.061-1.35.031-.736.092-1.472.031-2.209l-.184-1.38c-.215-.859-.614-1.657-1.227-2.301a6.367 6.367 0 0 0-1.933-1.319 9.818 9.818 0 0 0-2.055-.583 10.04 10.04 0 0 0-1.657-.123 8.502 8.502 0 0 0-3.927.89 5.456 5.456 0 0 0-1.074.982 8.46 8.46 0 0 0-1.687 4.264c-.031.736 0 1.442.245 2.147l.215.46.368.031.031.092c-.092.061-.215.061-.337.092a2.486 2.486 0 0 0-.89.368c-.215.153-.429.337-.552.583-.153.307-.092.675-.031 1.012a2.808 2.808 0 0 0 1.012 1.503c.337.276.767.43 1.196.491.307.061.614 0 .92-.031.153.123.245.368.337.521l.552.828a4.178 4.178 0 0 0 2.025 1.534c.675.276 1.38.43 2.086.583l1.258.245.521.153v.123h-.368c-.69-.038-1.376-.12-2.055-.245a7.835 7.835 0 0 1-2.577-1.012 3.283 3.283 0 0 1-.89-.828 6.564 6.564 0 0 1-.491 3.773 3.696 3.696 0 0 1-2.147 1.749c-.092.031-.215.061-.307.031-.061 0-.061-.031-.061-.092.031-.092.123-.153.184-.184.368-.245.798-.429 1.166-.706.399-.337.736-.706.951-1.166.184-.46.307-.982.368-1.503.061-.399.092-.798.061-1.227l-.123-1.166-.552-1.104-.583.123a2.7 2.7 0 0 1-2.301-1.165 2.857 2.857 0 0 1-.614-1.779c0-.276.092-.552.245-.767s.368-.399.583-.521c.153-.123.368-.184.552-.245l-.276-.736c-.153-.675-.153-1.38-.061-2.055a8.958 8.958 0 0 1 1.933-4.571c.276-.307.552-.583.89-.798.215-.123.429-.153.614-.276 1.319-.583 2.761-.767 4.203-.675z" style="fill:var(--color4, #262626)"/>
      <path fill="#ffdecc" d="M18.83 5.81a8.471 8.471 0 0 1 3.712.706c.706.307 1.38.767 1.933 1.319.614.644 1.012 1.442 1.227 2.301l.184 1.38c.061.736 0 1.472-.031 2.209-.031.46-.092.89-.061 1.35 0 .123 0 .245.061.368l-.031.614c-.061.153-.061.307-.061.491-.061.736-.061 1.503-.184 2.27-.031.368-.092.767-.245 1.104a1.863 1.863 0 0 1-.46.736 5.374 5.374 0 0 1-1.319 1.012c-.583.337-1.196.491-1.779.736-.153.061-.307.123-.399.245.245.031.46 0 .706-.061-.153.368-.184.736-.184 1.104 0 .153-.031.337.031.491.092.153.245.276.399.368l1.074.399c.675.245 1.319.552 1.994.828.061.123.153.215.184.368.184.337.215.706.092 1.074-.153.399-.46.736-.828.951-.491.337-1.104.583-1.687.736-2.385.51-4.858.436-7.209-.215-.614-.215-1.227-.43-1.779-.736-.429-.245-.89-.552-1.227-.951a1.904 1.904 0 0 1-.368-.89 3.749 3.749 0 0 0 2.639-3.282 6.839 6.839 0 0 0 0-2.239c.245.337.552.613.89.828l.828.429c1.203.519 2.494.8 3.804.828h.368v-.123l-.521-.153-1.258-.245c-.706-.153-1.411-.307-2.086-.583a9.004 9.004 0 0 1-1.196-.644 5.638 5.638 0 0 1-.828-.89l-.552-.828c-.092-.153-.184-.399-.337-.521-.307.031-.614.092-.92.031-.429-.061-.859-.215-1.196-.491a2.881 2.881 0 0 1-1.012-1.503c-.061-.337-.123-.706.031-1.012.123-.245.337-.429.552-.583.276-.184.583-.307.89-.368.123-.031.245-.031.337-.092l-.031-.092-.368-.031-.215-.46c-.245-.706-.276-1.411-.215-2.147a8.47 8.47 0 0 1 1.656-4.264 5.456 5.456 0 0 1 1.074-.982 8.5 8.5 0 0 1 3.927-.92v.031z" style="fill:var(--color5, #ffdecc)"/>
      <path fill="#262626" d="M12.236 15.871a.66.66 0 0 1 .337.061c.153.031.337.123.429.245a.28.28 0 0 1 0 .307c-.153.184-.368.307-.491.491.184.123.429.184.644.276a.731.731 0 0 1 .337.184l.031.092-.245-.061-.736-.215c-.123-.031-.245-.092-.276-.215-.031-.092.031-.215.092-.307l.46-.399c-.123-.215-.46-.245-.583-.46zm13.589.184.061.092.061.491c.064.91.043 1.824-.061 2.73-.061.337-.153.706-.307 1.012a6.07 6.07 0 0 1-3.252 2.178c-.031.429-.092.951-.061 1.442l.153.153c.245.184.552.276.828.368a13.78 13.78 0 0 1 2.086.859c.215.123.399.276.552.46-.153.031-.307-.031-.491-.061-.675-.276-1.319-.583-1.994-.828l-1.074-.399a1.155 1.155 0 0 1-.399-.368c-.061-.153-.031-.337-.031-.491 0-.368.031-.736.184-1.104-.245.061-.46.092-.706.061.092-.123.245-.184.399-.245.583-.245 1.196-.399 1.779-.736a5.398 5.398 0 0 0 1.319-1.012c.215-.215.368-.46.46-.736.153-.337.215-.736.245-1.104.123-.767.123-1.534.184-2.27 0-.184 0-.337.061-.491zM24.782 12.866a.88.88 0 0 1 .675.184c.092.092.184.215.184.337.031.153-.123.307-.276.307a.38.38 0 0 1-.245-.184l-.307-.215c.276.491.123 1.166-.307 1.503-.215.184-.552.245-.767.031-.184-.153-.245-.368-.245-.614-.061.153-.153.276-.184.429-.031.061-.031.123-.092.123-.061-.153-.031-.337.031-.521.184-.491.521-.92.982-1.166.153-.123.337-.184.552-.215zm-6.504.337c.828.031 1.626.552 1.963 1.288.061.061.123.184.031.276-.092 0-.153-.123-.215-.184a1.61 1.61 0 0 0-.521-.583c.061.337.061.644-.123.951a.855.855 0 0 1-.767.368c-.215-.061-.43-.153-.583-.337-.184-.184-.245-.491-.245-.736 0-.215.092-.399.184-.552a2.851 2.851 0 0 0-1.196.552c-.092.031-.153.092-.245.092-.123-.031-.184-.123-.184-.245 0-.092.061-.184.123-.245.245-.184.491-.368.798-.491s.644-.184.982-.153zM18.586 9.92c.46.031.982.153 1.35.46.123.092.245.215.276.337.031.092.031.153-.061.184-.092 0-.184-.092-.245-.153a1.982 1.982 0 0 0-1.166-.399c-.245 0-.46.061-.706.123-.46.092-.89.337-1.166.706-.092.092-.153.215-.307.245s-.307-.092-.307-.245c-.031-.123.061-.245.123-.337.368-.46.92-.767 1.503-.89a1.82 1.82 0 0 1 .706-.031zm6.288.307c.153.061.307.215.399.337a.493.493 0 0 1 .153.337c0 .184-.184.307-.368.245-.153-.061-.184-.215-.307-.337-.123-.092-.276-.215-.399-.245-.368-.123-.736.031-.982.276l-.276.276c0-.215.123-.399.276-.521a1.437 1.437 0 0 1 1.503-.368zM22.88 16.946c0 .092-.061.184-.123.276-.123.184-.337.307-.552.368-.153.031-.276-.061-.399 0-.123 0-.245.031-.368-.031-.061-.031-.061-.123 0-.184.092-.123.245-.215.368-.215.123-.031.215-.031.307.061l.031.215c.153-.061.215-.153.337-.245l.399-.245zM18.861 18.6c.092 0 .153.061.215.123l.399.215c.337.153.706.245 1.043.337.46.153.92.184 1.38.184.368.031.706.061 1.043.031l.123.061c-.552.276-1.258.337-1.871.307-.706-.031-1.411-.245-2.025-.552-.184-.123-.399-.245-.43-.491-.031-.092.031-.215.123-.215z" style="fill:var(--color4, #262626)"/>
      <path fill="#262626" d="M19.843 5.106a8.335 8.335 0 0 1 2.976.736c.429.215.89.429 1.288.706.245.153.491.337.675.552l.675.767c-.276.123-.552.092-.828.061-.521-.061-1.043-.123-1.564-.092l-.245-.031-.215-.153-.368-.245a.699.699 0 0 1-.092.337.28.28 0 0 1-.215.092c-.123-.031-.215-.092-.337-.092a14.403 14.403 0 0 0-4.755.092h-.337l-.552-.184c.031.276.123.552.092.798-.031.123-.031.245-.092.337-.215.43-.46.828-.644 1.288a9.932 9.932 0 0 0-.521 1.626.168.168 0 0 1-.092.153l-.368.061c.153.276.184.614.153.92-.031.368-.092.798-.276 1.104.215.276.307.644.307 1.012.031.583 0 1.135-.215 1.687-.061.123-.153.276-.307.337-.031.031-.123.031-.123-.031-.061-.123-.061-.276-.092-.399a2.13 2.13 0 0 0-.614-1.227 4.79 4.79 0 0 0-.798-.583 1.49 1.49 0 0 1-.491-.245l-.184-.245c-.368-.982-.491-2.055-.368-3.098a8.73 8.73 0 0 1 1.135-3.466c.307-.491.675-.92 1.074-1.319.307-.276.614-.521.951-.706l.429-.153.982-.337.583-.061h1.319c.706 0 1.35-.061 2.055 0z" style="fill:var(--color4, #262626)"/>
    </symbol>
    <symbol id="testimonials-avatar-2" viewBox="0 0 32 32">
      <path fill="#262626" d="M16.645 4.668a9.514 9.514 0 0 1 2.577.46 6.167 6.167 0 0 1 3.068 1.994 5.551 5.551 0 0 1 1.074 2.638c.166 1.025.186 2.068.061 3.098l-.153 1.043-.123.614c-.031.061-.031.061-.092.061-.061-.123-.061-.245-.061-.368-.031-.46.031-.89.061-1.35.031-.736.092-1.472.031-2.209l-.184-1.38c-.215-.859-.614-1.657-1.227-2.301a6.367 6.367 0 0 0-1.933-1.319 9.818 9.818 0 0 0-2.055-.583 10.035 10.035 0 0 0-1.656-.123 8.502 8.502 0 0 0-3.927.89 5.456 5.456 0 0 0-1.074.982 8.46 8.46 0 0 0-1.687 4.264c-.031.736 0 1.442.245 2.147l.215.46.368.031.031.092c-.092.061-.215.061-.337.092a2.486 2.486 0 0 0-.89.368c-.215.153-.429.337-.552.583-.153.307-.092.675-.031 1.012a2.808 2.808 0 0 0 1.012 1.503c.337.276.767.43 1.196.491.307.061.614 0 .92-.031.153.123.245.368.337.521l.552.828a4.178 4.178 0 0 0 2.025 1.534c.675.276 1.38.43 2.086.583l1.258.245.521.153v.123h-.368c-.69-.038-1.376-.12-2.055-.245a7.835 7.835 0 0 1-2.577-1.012 3.283 3.283 0 0 1-.89-.828 6.564 6.564 0 0 1-.491 3.773 3.696 3.696 0 0 1-2.147 1.749c-.092.031-.215.061-.307.031-.061 0-.061-.031-.061-.092.031-.092.123-.153.184-.184.368-.245.798-.429 1.166-.706.399-.337.736-.706.951-1.166.184-.46.307-.982.368-1.503.061-.399.092-.798.061-1.227l-.123-1.166-.552-1.104-.583.123a2.7 2.7 0 0 1-2.301-1.165 2.857 2.857 0 0 1-.614-1.779c0-.276.092-.552.245-.767s.368-.399.583-.521c.153-.123.368-.184.552-.245l-.276-.736c-.153-.675-.153-1.38-.061-2.055a8.958 8.958 0 0 1 1.933-4.571c.276-.307.552-.583.89-.798.215-.123.429-.153.614-.276 1.319-.583 2.761-.767 4.203-.675z" style="fill:var(--color4, #262626)"/>
      <path fill="#ffdecc" d="M16.031 4.944a8.471 8.471 0 0 1 3.712.706c.706.307 1.38.767 1.933 1.319.613.644 1.012 1.442 1.227 2.301l.184 1.38c.061.736 0 1.472-.031 2.209-.031.46-.092.89-.061 1.35 0 .123 0 .245.061.368l-.031.614c-.061.153-.061.307-.061.491-.061.736-.061 1.503-.184 2.27-.031.368-.092.767-.245 1.104a1.863 1.863 0 0 1-.46.736 5.374 5.374 0 0 1-1.319 1.012c-.583.337-1.196.491-1.779.736-.153.061-.307.123-.399.245.245.031.46 0 .706-.061-.153.368-.184.736-.184 1.104 0 .153-.031.337.031.491.092.153.245.276.399.368l1.074.399c.675.245 1.319.552 1.994.828.061.123.153.215.184.368.184.337.215.706.092 1.074-.153.399-.46.736-.828.951-.491.337-1.104.583-1.687.736-2.385.51-4.858.436-7.209-.215-.614-.215-1.227-.43-1.779-.736-.43-.245-.89-.552-1.227-.951a1.904 1.904 0 0 1-.368-.89 3.742 3.742 0 0 0 2.639-3.282 6.839 6.839 0 0 0 0-2.239c.245.337.552.613.89.828l.828.429c1.203.519 2.494.8 3.804.828h.368v-.123l-.521-.153-1.258-.245c-.706-.153-1.411-.307-2.086-.583a9.004 9.004 0 0 1-1.196-.644 5.638 5.638 0 0 1-.828-.89l-.552-.828c-.092-.153-.184-.399-.337-.521-.307.031-.614.092-.92.031-.429-.061-.859-.215-1.196-.491a2.881 2.881 0 0 1-1.012-1.503c-.061-.337-.123-.706.031-1.012.123-.245.337-.429.552-.583.276-.184.583-.307.89-.368.123-.031.245-.031.337-.092l-.031-.092-.368-.031-.215-.46c-.245-.706-.276-1.411-.215-2.147a8.47 8.47 0 0 1 1.656-4.264 5.456 5.456 0 0 1 1.074-.982 8.5 8.5 0 0 1 3.927-.92v.031z" style="fill:var(--color5, #ffdecc)"/>
      <path fill="#262626" d="M9.437 15.008a.66.66 0 0 1 .337.061c.153.031.337.123.429.245a.28.28 0 0 1 0 .307c-.153.184-.368.307-.491.491.184.123.429.184.644.276a.731.731 0 0 1 .337.184l.031.092-.245-.061-.736-.215c-.123-.031-.245-.092-.276-.215-.031-.092.031-.215.092-.307l.46-.399c-.123-.215-.46-.245-.583-.46zm13.589.184.061.092.061.491c.064.91.043 1.824-.061 2.73-.061.337-.153.706-.307 1.012a6.07 6.07 0 0 1-3.252 2.178c-.031.429-.092.951-.061 1.442l.153.153c.245.184.552.276.828.368a13.78 13.78 0 0 1 2.086.859c.215.123.399.276.552.46-.153.031-.307-.031-.491-.061-.675-.276-1.319-.583-1.994-.828l-1.074-.399a1.155 1.155 0 0 1-.399-.368c-.061-.153-.031-.337-.031-.491 0-.368.031-.736.184-1.104-.245.061-.46.092-.706.061.092-.123.245-.184.399-.245.583-.245 1.196-.399 1.779-.736a5.374 5.374 0 0 0 1.319-1.012c.215-.215.368-.46.46-.736.153-.337.215-.736.245-1.104.123-.767.123-1.534.184-2.27 0-.184 0-.337.061-.491zM22.719 13.133l-.061.215c-.092.153-.184.276-.337.368s-.337.123-.521.153l-.552.061c-.153 0-.245.092-.307.184l-.215.215c-.061.031-.153-.031-.123-.092.031-.245.215-.429.337-.614.092-.092.215-.215.368-.215l.92-.153c.153-.031.307-.123.491-.123zm-9.356.123c.368-.031.644.092.982.123.46.061.92.123 1.38.123l.736.061c.245.031.521 0 .736.123s.368.307.491.491c.031.061.061.123 0 .215-.031.031-.092 0-.123-.031-.123-.061-.215-.184-.337-.215l-.368-.031-.859-.031-.675-.031c-.307-.031-.614-.031-.92-.153-.215-.061-.368-.184-.583-.276l-.368-.276c-.061-.031-.092-.031-.092-.092zM16.89 9.576c.215 0 .429.061.583.184.123.061.215.123.245.245.031.061 0 .153-.061.184-.153.031-.307-.061-.429-.092l-.276-.031c-.399-.031-.798.031-1.196.123a5.189 5.189 0 0 0-1.841.951c-.123.061-.276.153-.429.123-.092 0-.092-.123-.061-.215.031-.184.215-.337.368-.491.307-.276.706-.46 1.074-.614.614-.276 1.35-.429 2.025-.368zm4.786.061a.721.721 0 0 1 .613.092c.123.092.245.184.276.337.031.092.031.184-.061.215s-.215.031-.307-.031c-.153-.092-.276-.184-.46-.184a.982.982 0 0 0-.429.092c-.245.123-.491.337-.614.583l-.184.276h-.092v-.184c.061-.245.215-.491.399-.675.215-.245.521-.46.859-.521zM8.086 14.947c.153 0 .307-.031.429.061.092.061.153.153.123.276a.376.376 0 0 1-.337.215H7.81c-.153-.031-.276-.092-.337-.215-.031-.123.061-.215.153-.276.153-.061.307-.031.46-.061zm.399.705c.092.031.215.092.215.215 0 .092-.031.184-.123.215-.153.123-.337.123-.521.184-.153.031-.307.061-.429-.031s-.092-.276 0-.368c.123-.123.245-.123.399-.153s.307-.092.46-.061zm2.209 1.595h.245a.268.268 0 0 1 .184.245c0 .153-.123.276-.276.307-.153.061-.276-.061-.337-.184-.031-.153.031-.337.184-.368zM20.081 16.079c0 .092-.061.184-.123.276-.123.184-.337.307-.552.368-.153.031-.276-.061-.399 0-.123 0-.245.031-.368-.031-.061-.031-.061-.123 0-.184.092-.123.245-.215.368-.215.123-.031.215-.031.307.061l.031.215c.153-.061.215-.153.337-.245l.399-.245z" style="fill:var(--color4, #262626)"/>
      <path fill="#262626" d="M23.516 15.438c.276 0 .521.123.675.337a.875.875 0 0 1 .172.667.89.89 0 0 1-.357.59c.245.061.491.215.675.399.276.337.491.798.46 1.258-.031.245-.123.46-.245.644-.245.399-.644.675-1.074.859l.245.276c.092.215.123.429.123.675a1.626 1.626 0 0 1-.46 1.012 1.901 1.901 0 0 1-1.166.521c-.307.031-.644.031-.951-.061-.031.215-.092.46-.184.675a1.777 1.777 0 0 1-2.147.797 1.845 1.845 0 0 1-.859-.736c-.46.276-.951.368-1.472.368-.43.031-.951 0-1.319-.215-.245-.092-.399-.276-.552-.46a.608.608 0 0 1-.184-.337c-.337.276-.798.337-1.196.276-.307-.092-.583-.245-.736-.521-.153-.184-.184-.46-.184-.706h-.429c-.245-.031-.491-.153-.706-.307a3.322 3.322 0 0 1-.798-1.135c-.061-.184-.123-.368-.123-.583 0-.337.123-.675.337-.951-.092-.215-.123-.429-.061-.644.092-.368.368-.675.675-.859.276-.184.614-.245.951-.215a.858.858 0 0 1 .307-.43 1.822 1.822 0 0 1 1.227-.491c.307 0 .583.031.828.153a.826.826 0 0 1 .46-.337c.337-.153.706-.123 1.043.031.583.215 1.043.552 1.595.767.153.123.368.092.583.123s.429 0 .644-.031c.092-.031.215-.031.276-.092l.583-.307.613-.46c.245-.153.552-.307.859-.276a.446.446 0 0 1 .276.184 2.821 2.821 0 0 1 1.595-.46z" style="fill:var(--color4, #262626)"/>
      <path fill="#ffdecc" d="M16.124 18.287c.092-.031.153 0 .153.061 0 .092-.092.184-.184.215-.092-.092-.061-.215.031-.276zm.767.368 1.104.215.92.061c.215.031.399 0 .583.061-.031.061-.092.092-.184.123a4.84 4.84 0 0 1-2.27-.184c-.092-.031-.215-.092-.245-.184a.068.068 0 0 1 .092-.092z" style="fill:var(--color5, #ffdecc)"/>
      <path fill="#262626" d="M15.97 4.27c.866.002 1.73.094 2.577.276.337.092.644.153.951.276l1.074.399c.307.092.583.276.89.399l.491.184.89.184c.153.061.276.153.337.307.092.184.061.368 0 .552l.307.153a.583.583 0 0 1 .153.583.665.665 0 0 1-.307.276 3.034 3.034 0 0 1-2.117.245l-1.35-.307-1.902-.521a7.331 7.331 0 0 0-5 .092l-.123.429a8.122 8.122 0 0 0-.245 1.472v.521l-.031.245c-.092.215-.276.429-.399.644a13.72 13.72 0 0 0-.982 1.718l-.061.429v1.196c0 .153.061.276-.031.399-.46-.061-.92-.184-1.411-.307-.061 0-.153 0-.215-.061l-.215-.276c-.123-.092-.153-.276-.215-.43-.215-.644-.276-1.38-.276-2.086 0-.859.153-1.687.307-2.515.123-.46.307-.89.521-1.288.307-.614.736-1.135 1.227-1.595.491-.491 1.074-.828 1.718-1.074a9.129 9.129 0 0 1 3.436-.521zm-5.675 10.154c.307 0 .614.092.89.153a.837.837 0 0 1 .368.184c.092.061.061.184-.031.215-.276.092-.491 0-.736-.061-.184-.061-.429-.123-.614-.245-.061-.031-.153-.123-.092-.184s.153-.061.215-.061zm13.406 3.589c.031.061.031.092-.031.153l.031-.153z" style="fill:var(--color4, #262626)"/>
    </symbol>
    <symbol id="testimonials-avatar-3" viewBox="0 0 33 32">
      <path fill="#262626" d="M17.66 5.549a7.542 7.542 0 0 1 3.466 1.442 6.571 6.571 0 0 1 1.994 2.485 6.25 6.25 0 0 1 .583 2.792c-.031.46-.092.92-.245 1.35h-.061l.031-.644c.031-.92-.061-1.81-.399-2.669-.307-.92-.859-1.749-1.534-2.423-1.288-1.227-3.006-1.902-4.785-1.933a7.453 7.453 0 0 0-6.013 2.884 6.353 6.353 0 0 0-1.227 4.264l.061.767c.245 0 .583 0 .767.215l-.092.092-.521.031c-.368.031-.736.153-1.012.399-.305.328-.489.75-.521 1.196-.153.982.368 1.994 1.196 2.546.491.307 1.104.46 1.687.276.123-.061.276-.153.429-.092.092.031.123.123.153.215a7.706 7.706 0 0 0 2.761 3.068c.245.215.552.399.859.552.552.245 1.166.429 1.749.583l.982.245c.153.031.276.031.399.092l-.123.031c-.767.061-1.472-.092-2.209-.307a6.023 6.023 0 0 1-1.043-.368 9.383 9.383 0 0 1-2.577-1.933l.061.859c.031.521 0 1.074-.184 1.595a3.496 3.496 0 0 1-.583 1.043 5.24 5.24 0 0 1-1.043.798c-.307.215-.644.43-.982.552l-.491.153.276-.276.951-.614.675-.521a2.913 2.913 0 0 0 .982-1.718c.061-.43.061-.859.061-1.319v-.828c-.307-.43-.675-.89-.828-1.411-.521.245-1.166.215-1.687-.031a3.322 3.322 0 0 1-1.319-1.012c-.368-.521-.583-1.104-.644-1.718s.061-1.227.46-1.718a2.157 2.157 0 0 1 1.074-.644 4.932 4.932 0 0 1-.184-1.35 7.168 7.168 0 0 1 2.546-5.306 7.646 7.646 0 0 1 6.104-1.687z" style="fill:var(--color4, #262626)"/>
      <path fill="#ffdecc" d="M21.494 7.884c.675.675 1.227 1.503 1.534 2.423.337.859.429 1.749.399 2.669l-.031.644-.153.46-.061.399.061 1.718c0 .644.031 1.288-.031 1.933l-.092 1.442a4.24 4.24 0 0 1-.43 1.38 4.062 4.062 0 0 1-1.35 1.35c-.399.245-.828.368-1.258.491l-1.166.337-.521.092c0 .031.031.061.092.061.245.153.521.153.798.123a1.01 1.01 0 0 0-.061.675c.092.215.337.337.521.429.368.184.736.215 1.104.276.215.184.429.429.491.736.061.245.061.491-.061.706a1.638 1.638 0 0 1-.736.706 4.832 4.832 0 0 1-1.288.552c-2.24.536-4.575.526-6.81-.031-.521-.123-1.012-.276-1.472-.521-.368-.184-.706-.399-.982-.675-.153-.215-.276-.429-.307-.706.337-.123.675-.337.982-.552a5.24 5.24 0 0 0 1.043-.798c.245-.307.46-.675.583-1.043.184-.521.215-1.074.184-1.595l-.061-.859.675.706c.583.46 1.227.92 1.902 1.227.337.153.675.276 1.043.368.736.215 1.442.368 2.209.307l.123-.031c-.123-.061-.245-.061-.399-.092l-.982-.245c-.583-.153-1.196-.337-1.749-.583l-.89-.521c-.337-.276-.706-.521-1.012-.828a7.698 7.698 0 0 1-1.718-2.27c-.031-.092-.061-.184-.153-.215-.153-.061-.307.031-.43.092-.583.184-1.196.031-1.687-.276a2.7 2.7 0 0 1-1.196-2.546c.031-.429.215-.859.521-1.196.276-.245.644-.368 1.012-.399l.521-.031.092-.092c-.184-.215-.521-.215-.767-.215l-.061-.767a6.353 6.353 0 0 1 1.227-4.264 7.45 7.45 0 0 1 6.013-2.884c1.779.031 3.497.706 4.785 1.933z" style="fill:var(--color5, #ffdecc)"/>
      <path fill="#262626" d="M23.243 14.079c.092 0 .092.123.123.184.092.337.123.706.153 1.043l.061.644c.031.675.061 1.319.031 1.994-.031.644-.031 1.35-.153 1.994-.13.668-.422 1.294-.85 1.823s-.979.946-1.604 1.214c-.46.215-.951.337-1.472.399v.46c.031.092.092.123.153.184.368.184.706.245 1.104.337.368.092.736.153 1.104.337a.462.462 0 0 1-.337.123c-.215.031-.46-.031-.706-.031-.368-.061-.736-.092-1.104-.276-.184-.092-.429-.215-.521-.429a1.016 1.016 0 0 1 .061-.675c-.276.031-.552.031-.798-.123-.061 0-.092-.031-.092-.061l.521-.092 1.166-.337c.43-.123.859-.245 1.258-.491a4.062 4.062 0 0 0 1.35-1.35c.215-.429.368-.89.429-1.38l.092-1.442c.061-.644.031-1.288.031-1.933l-.061-1.718.061-.399zm-14.049.828c.245 0 .521.031.706.215.153.123.307.276.368.46a.238.238 0 0 1-.061.245l-.399.245c-.215.184-.215.583 0 .767.184.153.43.245.644.337.061 0 .153.031.184.092a.17.17 0 0 1-.153.092c-.307 0-.614-.092-.859-.276a.604.604 0 0 1-.276-.399c-.061-.245-.061-.521.123-.736.123-.184.337-.276.552-.368-.123-.153-.215-.337-.429-.399-.215-.092-.46-.092-.675-.153l.276-.123zM22.414 12.946c.123 0 .245 0 .307.092.123.092.123.307-.031.399-.092.061-.184.061-.307.061l-.552.123c0 .215-.031.46-.123.675a.9.9 0 0 1-.307.368.424.424 0 0 1-.521-.123l-.092-.245c-.092.092-.153.184-.276.245-.092.031-.123 0-.123-.092a.85.85 0 0 1 .245-.46 2.796 2.796 0 0 1 1.288-.982l.491-.061zm-7.423.429c.337 0 .644.061.951.123.429.123.859.245 1.227.552.092.092.245.184.276.307 0 .061 0 .092-.061.092l-.337-.153c-.307-.153-.675-.245-1.043-.307-.061.276-.123.552-.307.798a.623.623 0 0 1-.46.184 1.021 1.021 0 0 1-.644-.337c-.153-.215-.184-.429-.215-.706l-.429.123c-.092.031-.184.061-.276.031-.153-.031-.215-.184-.184-.337.031-.123.153-.184.276-.215.368-.153.828-.184 1.227-.153zM16.157 9.909a2.656 2.656 0 0 1 1.411.521c.092.092.215.153.245.276.031.061-.031.153-.092.123-.245-.031-.46-.153-.706-.215a1.82 1.82 0 0 0-.706-.153c-.215-.031-.46 0-.675.031-.46.061-.92.276-1.319.491l-.644.276-.031-.031a.837.837 0 0 1 .184-.368c.184-.307.521-.491.828-.644.46-.215.982-.337 1.503-.307zm5.951.123c.153.061.337.153.46.307.123.123.153.276.123.46l-.706-.215c-.215-.061-.399-.031-.613-.061-.215 0-.46.031-.644.153l-.399.245h-.092a.238.238 0 0 1 .061-.245c.153-.276.399-.46.675-.552.368-.123.736-.184 1.135-.092zM19.96 16.871v.031a1.09 1.09 0 0 1-.613.552c-.092.031-.215.031-.276-.031V17.3c.215-.153.491-.276.736-.368l.153-.061zM15.666 17.943l.245.092.061.031 1.196.337c.87.158 1.757.199 2.638.123.297-.003.593-.003.89 0l-.061.061v.031l-.552.184c0 .123 0 .276-.061.399-.123.307-.368.552-.675.675s-.644.153-.951.031a1.3 1.3 0 0 1-.644-.491.94.94 0 0 1-.215-.614 7.893 7.893 0 0 1-2.239-.736l-.245-.123c-.031 0-.061-.061-.031-.092.031-.061.123-.061.184-.031h.031l.429.123zm2.117.889c.031.307.276.552.552.706.368.276.982.153 1.227-.245.092-.123.123-.276.153-.429v-.031l-.798.061.031.031c0 .092.031.153-.031.245s-.184.092-.215 0a.301.301 0 0 1-.031-.276 27.964 27.964 0 0 0-.767-.061h-.123z" style="fill:var(--color4, #262626)"/>
      <path fill="#262626" d="M14.746 4.263h1.227c1.503.061 2.976.337 4.417.675.859.215 1.656.491 2.423.92.399.245.828.552 1.135.92.368.399.613.89.706 1.411.123.644.123 1.319-.092 1.963-.153.46-.429.92-.828 1.227-.552.46-1.258.767-1.963.798-.061.031-.123 0-.123-.092l.245-.491a2.983 2.983 0 0 1-1.166.706c-.123.031-.307.061-.43 0v-.153c0-.46-.031-.89-.153-1.319-.092-.491-.337-.89-.552-1.319.061.46.031.951-.061 1.411-.092.43-.276.798-.583 1.104-.061.123-.215.153-.337.092l-.061-.215c-.061-.337-.215-.644-.368-.951-.276-.614-.675-1.135-1.135-1.626a7.686 7.686 0 0 0-2.331-1.595 11.647 11.647 0 0 1-.307 3.19c-.123.43-.307.859-.583 1.227-.092.123-.215.307-.368.368h-.215a4.391 4.391 0 0 0-.031-1.104c-.061-.337-.153-.706-.307-1.012-.092.552-.399 1.012-.767 1.442-.276.245-.552.491-.89.675v2.086l.031.92c0 .092-.092.245-.184.276a.96.96 0 0 1-.399-.184 5.31 5.31 0 0 1-1.012-.859 5.536 5.536 0 0 1-1.411-4.141 6.84 6.84 0 0 1 4.54-5.921 5.9 5.9 0 0 1 1.933-.429z" style="fill:var(--color4, #262626)"/>
    </symbol>
    <symbol id="arrow-right" viewBox="0 0 32 32">
      <path d="M4.8 16A1.2 1.2 0 0 1 6 14.8h17.021l-6.652-6.335a1.2 1.2 0 1 1 1.664-1.73l8.8 8.4a1.201 1.201 0 0 1 0 1.73l-8.8 8.4a1.201 1.201 0 0 1-1.664-1.73l6.652-6.335H6A1.2 1.2 0 0 1 4.8 16z"/>
    </symbol>
    <symbol id="benefits-icon-1" viewBox="0 0 32 32">
      <path d="M15.6 3.74a.997.997 0 0 1 .801 0 80.851 80.851 0 0 1 14.039 7.886 1 1 0 0 1-.308 1.783 66.56 66.56 0 0 0-13.202 5.216l-.004.002a49.57 49.57 0 0 0-.453.24 1.003 1.003 0 0 1-.943 0l-.457-.242a66.346 66.346 0 0 0-5.072-2.393v-.298c0-.175.09-.331.229-.415a72.614 72.614 0 0 1 6.204-3.359.999.999 0 1 0-.866-1.802 74.45 74.45 0 0 0-6.374 3.452 2.48 2.48 0 0 0-1.145 1.637 66.987 66.987 0 0 0-6.18-2.036 1 1 0 0 1-.308-1.783A80.917 80.917 0 0 1 15.6 3.742z"/>
      <path d="M17.415 20.631a64.566 64.566 0 0 1 10.22-4.377c.179 1.886.293 3.792.341 5.713a1 1 0 0 1-.614.947 63.84 63.84 0 0 0-10.806 5.789 1 1 0 0 1-1.109 0 63.877 63.877 0 0 0-10.806-5.789.998.998 0 0 1-.614-.947c.047-1.922.162-3.827.341-5.714a64.39 64.39 0 0 1 3.634 1.32v1.694a1.999 1.999 0 0 0-.186 3.342 6.96 6.96 0 0 1-.53 1.48c.604.285 1.202.579 1.795.882a8.962 8.962 0 0 0 .735-2.144 2.001 2.001 0 0 0 .186-3.56v-.86a64.848 64.848 0 0 1 4.587 2.223 3.001 3.001 0 0 0 2.828 0z"/>
      <path d="M5.95 25.95a6.978 6.978 0 0 0 1.334-1.86c.604.285 1.202.579 1.795.882a8.994 8.994 0 0 1-1.715 2.392A1 1 0 0 1 5.95 25.95z"/>
    </symbol>
    <symbol id="benefits-icon-2" viewBox="0 0 32 32">
      <path d="m6.101 22.128.348 1.317c.44 1.712 1.402 2.59 3.313 2.59h12.477c1.923 0 2.873-.856 3.325-2.59l.348-1.317H6.103zm-.382-1.503h20.586l2.178-8.449-.95-.516-5.34 3.687c-.394.263-.66.165-.88-.132l-5.028-7.198-.556-.022-5.074 7.253c-.197.285-.429.373-.822.11l-5.236-3.621-1.112.274 2.236 8.614zM3.912 14.37c1.529 0 2.757-1.174 2.757-2.633 0-1.426-1.228-2.612-2.757-2.612s-2.769 1.174-2.769 2.612c0 1.459 1.251 2.633 2.769 2.633zm12.094-4.564c1.517 0 2.757-1.174 2.757-2.623 0-1.426-1.24-2.612-2.757-2.612-1.541 0-2.769 1.174-2.769 2.612 0 1.448 1.24 2.623 2.769 2.623zm12.082 4.564c1.518 0 2.769-1.174 2.769-2.633 0-1.437-1.24-2.612-2.769-2.612-1.517 0-2.757 1.185-2.757 2.612 0 1.459 1.24 2.633 2.757 2.633z"/>
    </symbol>
    <symbol id="benefits-icon-3" viewBox="0 0 32 32">
      <path d="M16.005 23.969c6.207 0 10.625-2.405 10.625-5.934V12.83C26.63 9.707 22.872 8 16.005 8 9.128 8 5.37 9.707 5.37 12.83v5.205c0 3.529 4.417 5.934 10.635 5.934zm-5.673-10.223c0-.468.387-.864.869-.864h9.609c.492 0 .879.396.879.864a.875.875 0 0 1-.879.874h-9.609a.873.873 0 0 1-.869-.874zm0 4.019c0-.479.387-.874.869-.874h9.609c.492 0 .879.396.879.874s-.387.864-.879.864h-9.609a.864.864 0 0 1-.869-.864zM0 14.839c0 3.352 2.449 5.694 6.124 5.694h.68v-1.676h-.848c-2.544 0-4.271-1.686-4.271-4.018 0-1.156.618-1.863 1.738-1.863h2.952V11.3H3.423C1.256 11.3 0 12.632 0 14.839zm32 0c0-2.207-1.246-3.539-3.423-3.539h-2.952v1.676h2.952c1.12 0 1.738.708 1.738 1.863 0 2.332-1.727 4.018-4.271 4.018h-.848v1.676h.691c3.664 0 6.113-2.342 6.113-5.694z"/>
    </symbol>
    <symbol id="benefits-icon-4" viewBox="0 0 32 32">
      <path d="M4 3a1 1 0 0 1 1 1v.719l2.451-.613a12.998 12.998 0 0 1 8.967.984l.144.072a11.002 11.002 0 0 0 7.439.869l4.146-.976a1 1 0 0 1 1.223 1.081 63.756 63.756 0 0 0 .007 13.782A1 1 0 0 1 28.612 21l-4.152.977c-2.96.697-6.071.333-8.791-1.027l-.144-.072a11 11 0 0 0-7.587-.833l-2.936.734v7.219a1 1 0 0 1-2 0v-24a1 1 0 0 1 1-1z"/>
    </symbol>
    <symbol id="benefits-icon-5" viewBox="0 0 32 32">
      <path d="m25.932 11.264-4.082 3.401c.2.878.2 1.791 0 2.669l4.082 3.401a11.035 11.035 0 0 0 0-9.472zm-5.196 14.668-3.401-4.082c-.878.2-1.791.2-2.669 0l-3.401 4.082a11.035 11.035 0 0 0 9.472 0zM6.068 20.736l4.082-3.401c-.2-.878-.2-1.791 0-2.669l-4.082-3.401a11.035 11.035 0 0 0 0 9.472zm5.196-14.668 3.401 4.082c.878-.2 1.791-.2 2.669 0l3.401-4.082a11.035 11.035 0 0 0-9.472 0zm11.543-1.146a13.055 13.055 0 0 1 4.271 4.271 13.02 13.02 0 0 1 0 13.615 13.055 13.055 0 0 1-4.271 4.271 13.02 13.02 0 0 1-13.615 0 13.055 13.055 0 0 1-4.271-4.271 13.02 13.02 0 0 1 0-13.615 13.055 13.055 0 0 1 4.271-4.271 13.02 13.02 0 0 1 13.615 0zm-3.979 8.25a3.99 3.99 0 0 0-4.177-.939c-.539.192-1.046.505-1.48.939a3.99 3.99 0 0 0-.939 4.177c.192.539.505 1.046.939 1.48a3.99 3.99 0 0 0 4.177.939c.539-.192 1.046-.505 1.48-.939a3.99 3.99 0 0 0 .939-4.177 3.977 3.977 0 0 0-.939-1.48z"/>
    </symbol>
    <symbol id="benefits-icon-6" viewBox="0 0 32 32">
      <path d="M6 8.5a5.5 5.5 0 1 1 11 0 5.5 5.5 0 1 1-11 0zM19 11.5a4.5 4.5 0 1 1 9 0 4.5 4.5 0 0 1-9 0zM2 25.5c0-5.247 4.253-9.5 9.5-9.5s9.5 4.253 9.5 9.5v.003l-.001.159a1.001 1.001 0 0 1-.484.84c-2.634 1.586-5.719 2.497-9.014 2.497s-6.381-.912-9.015-2.497a1.001 1.001 0 0 1-.484-.84l-.001-.163zM23 25.504l-.002.192a3.004 3.004 0 0 1-.311 1.28 13.441 13.441 0 0 0 6.747-1.348 1 1 0 0 0 .559-.857 6.5 6.5 0 0 0-9.275-6.148A11.45 11.45 0 0 1 23 25.5v.004z"/>
    </symbol>
    <symbol id="facebook" viewBox="0 0 32 32">
      <path d="M32 16c0-8.837-7.163-16-16-16S0 7.163 0 16c0 7.986 5.851 14.605 13.5 15.806V20.625H9.437V16H13.5v-3.525c0-4.01 2.389-6.225 6.043-6.225 1.75 0 3.582.313 3.582.313v3.938h-2.018c-1.987 0-2.607 1.233-2.607 2.5v3h4.437l-.709 4.625H18.5v11.181c7.649-1.2 13.5-7.82 13.5-15.806z"/>
    </symbol>
    <symbol id="linkedin" viewBox="0 0 32 32">
      <path d="M29.631 0H2.362C1.056 0 0 1.031 0 2.306v27.381C0 30.962 1.056 32 2.362 32h27.269C30.937 32 32 30.963 32 29.694V2.307C32 1.032 30.937.001 29.631.001zM9.494 27.269h-4.75V11.994h4.75v15.275zM7.119 9.912a2.751 2.751 0 1 1 0-5.5 2.75 2.75 0 1 1 0 5.5zm20.15 17.357h-4.744v-7.425c0-1.769-.031-4.05-2.469-4.05-2.469 0-2.844 1.931-2.844 3.925v7.55h-4.738V11.994h4.55v2.087h.063c.631-1.2 2.181-2.469 4.488-2.469 4.806 0 5.694 3.163 5.694 7.275v8.381z"/>
    </symbol>
    <symbol id="logo" viewBox="0 0 147 32">
      <path d="m10.123 16 6.667-6.667L23.457 16l-6.667 6.667L10.123 16zM30.123 8v8L16.79 2.667h8L30.123 8zM30.123 24v-8L16.79 29.333h8L30.123 24zM3.456 24v-8l13.333 13.333h-8L3.456 24zM3.456 8v8L16.789 2.667h-8L3.456 8zM38.107 22V9.867H40.1V22h-1.993zm1.369 0v-1.82h6.344V22h-6.344zM47.394 22v-8.32h1.907V22h-1.907zm.953-9.845a1.11 1.11 0 0 1-.815-.329c-.208-.22-.312-.491-.312-.815s.104-.595.312-.815c.22-.22.491-.329.815-.329.335 0 .607.11.815.329s.312.491.312.815c0 .324-.104.595-.312.815s-.48.329-.815.329zM52.704 22V10.213h1.907V22h-1.907zm-1.993-6.587V13.68h10.92v1.733h-10.92zM57.731 22V10.213h1.907V22h-1.907zM63.017 22V9.52h1.907V22h-1.907zM70.911 22.173c-.832 0-1.583-.185-2.253-.555a4.336 4.336 0 0 1-1.577-1.56c-.381-.659-.572-1.398-.572-2.219s.191-1.554.572-2.201a4.245 4.245 0 0 1 1.543-1.56 4.285 4.285 0 0 1 2.184-.572c.774 0 1.456.179 2.045.537a3.74 3.74 0 0 1 1.404 1.473c.347.624.52 1.335.52 2.132 0 .139-.012.283-.035.433a4.427 4.427 0 0 1-.069.468h-6.829v-1.56h5.841l-.711.624c-.023-.508-.121-.936-.295-1.283s-.422-.612-.745-.797c-.312-.185-.699-.277-1.161-.277-.485 0-.907.104-1.265.312s-.636.503-.832.884c-.196.37-.295.815-.295 1.335s.104.976.312 1.369c.208.393.503.699.884.919.381.208.82.312 1.317.312.428 0 .82-.075 1.179-.225.37-.15.682-.37.936-.659l1.213 1.231c-.404.474-.896.832-1.473 1.075s-1.19.364-1.837.364zM80.035 22V9.867h1.993V22h-1.993zm1.369 0v-1.82h6.344V22h-6.344zM92.882 22.173c-.832 0-1.583-.185-2.253-.555a4.338 4.338 0 0 1-1.578-1.56c-.382-.659-.572-1.398-.572-2.219s.19-1.554.572-2.201a4.25 4.25 0 0 1 1.542-1.56 4.285 4.285 0 0 1 2.184-.572c.774 0 1.456.179 2.046.537a3.74 3.74 0 0 1 1.404 1.473c.346.624.52 1.335.52 2.132 0 .139-.012.283-.034.433a4.202 4.202 0 0 1-.07.468h-6.83v-1.56h5.842l-.71.624c-.023-.508-.122-.936-.295-1.283s-.422-.612-.745-.797c-.312-.185-.699-.277-1.162-.277-.486 0-.907.104-1.266.312s-.635.503-.832.884c-.196.37-.294.815-.294 1.335s.104.976.312 1.369c.208.393.502.699.884.919.382.208.82.312 1.318.312.427 0 .82-.075 1.178-.225.37-.15.682-.37.936-.659l1.214 1.231c-.405.474-.896.832-1.474 1.075s-1.19.364-1.838.364zM101.76 22.173c-.75 0-1.433-.191-2.045-.572a4.199 4.199 0 0 1-1.439-1.543c-.346-.659-.52-1.392-.52-2.201 0-.82.174-1.554.52-2.201a4.158 4.158 0 0 1 1.439-1.56 3.706 3.706 0 0 1 2.045-.589c.636 0 1.196.139 1.682.416.497.266.89.636 1.178 1.109s.434 1.011.434 1.612v2.392c0 .601-.144 1.138-.434 1.612a3.024 3.024 0 0 1-1.161 1.127c-.497.266-1.063.399-1.699.399zm.312-1.802c.706 0 1.271-.237 1.699-.711.439-.474.658-1.08.658-1.82 0-.497-.098-.936-.294-1.317s-.474-.676-.832-.884c-.347-.22-.757-.329-1.231-.329-.462 0-.872.11-1.23.329a2.283 2.283 0 0 0-.832.884c-.196.381-.294.82-.294 1.317s.098.936.294 1.317c.208.381.486.682.832.901.358.208.769.312 1.23.312zM104.308 22v-2.236l.33-2.028-.33-2.011V13.68h1.907V22h-1.907zM108.331 22v-8.32h1.906V22h-1.906zm1.907-4.628-.658-.329c0-1.052.231-1.901.693-2.548.474-.659 1.185-.988 2.132-.988.416 0 .792.075 1.127.225s.647.393.936.728l-1.248 1.283c-.15-.162-.318-.277-.503-.347s-.398-.104-.641-.104c-.532 0-.971.168-1.318.503s-.52.861-.52 1.577zM121.092 22v-4.801c0-.555-.179-1.011-.537-1.369-.347-.358-.798-.537-1.352-.537-.37 0-.699.081-.988.243s-.514.387-.676.676a1.985 1.985 0 0 0-.243.988l-.745-.416c0-.636.138-1.196.416-1.681a2.977 2.977 0 0 1 1.144-1.161 3.247 3.247 0 0 1 1.664-.433c.624 0 1.178.162 1.664.485.485.312.866.722 1.144 1.231a3.16 3.16 0 0 1 .416 1.56v5.217h-1.907zm-5.702 0v-8.32h1.906V22h-1.906zM128.802 22.173c-.832 0-1.583-.185-2.253-.555a4.338 4.338 0 0 1-1.578-1.56c-.382-.659-.572-1.398-.572-2.219s.19-1.554.572-2.201a4.25 4.25 0 0 1 1.542-1.56 4.285 4.285 0 0 1 2.184-.572c.774 0 1.456.179 2.046.537a3.74 3.74 0 0 1 1.404 1.473c.346.624.52 1.335.52 2.132 0 .139-.011.283-.034.433a4.202 4.202 0 0 1-.07.468h-6.83v-1.56h5.842l-.71.624c-.023-.508-.122-.936-.295-1.283s-.422-.612-.745-.797c-.312-.185-.699-.277-1.162-.277-.486 0-.907.104-1.266.312s-.635.503-.832.884c-.196.37-.294.815-.294 1.335s.104.976.312 1.369c.208.393.502.699.884.919.382.208.821.312 1.318.312.427 0 .82-.075 1.178-.225.37-.15.682-.37.936-.659l1.214 1.231c-.405.474-.896.832-1.474 1.075s-1.19.364-1.838.364zM134.196 22v-8.32h1.906V22h-1.906zm1.906-4.628-.658-.329c0-1.052.23-1.901.693-2.548.474-.659 1.185-.988 2.132-.988.416 0 .792.075 1.127.225s.646.393.936.728l-1.248 1.283c-.15-.162-.318-.277-.503-.347s-.398-.104-.641-.104c-.532 0-.971.168-1.318.503s-.52.861-.52 1.577zM143.79 22.173c-.462 0-.907-.058-1.335-.173-.427-.127-.82-.3-1.178-.52a4.026 4.026 0 0 1-.936-.832l1.214-1.213c.289.335.618.589.988.763.381.162.809.243 1.282.243.427 0 .751-.064.97-.191s.33-.312.33-.555c0-.254-.104-.451-.312-.589s-.479-.254-.814-.347c-.324-.104-.67-.208-1.04-.312a5.774 5.774 0 0 1-1.04-.416c-.324-.185-.59-.433-.798-.745s-.312-.716-.312-1.213c0-.532.122-.988.364-1.369a2.487 2.487 0 0 1 1.058-.884c.462-.208 1.011-.312 1.646-.312.67 0 1.259.121 1.768.364a3.2 3.2 0 0 1 1.3 1.057l-1.214 1.213c-.242-.3-.52-.526-.832-.676s-.67-.225-1.074-.225c-.382 0-.676.058-.884.173s-.312.283-.312.503c0 .231.104.41.312.537s.474.237.798.329c.335.092.682.196 1.04.312.37.104.716.254 1.04.451.335.185.606.439.814.763.208.312.312.722.312 1.231 0 .809-.283 1.45-.85 1.924s-1.334.711-2.305.711z"/>
    </symbol>
    <symbol id="mail" viewBox="0 0 32 32">
      <path d="M2 11.559V23a4 4 0 0 0 4 4h20a4 4 0 0 0 4-4V11.559l-11.904 7.325a4.001 4.001 0 0 1-4.193 0L1.999 11.559z"/>
      <path d="M30 9.21V9a4 4 0 0 0-4-4H6a4 4 0 0 0-4 4v.21l12.952 7.97a1.997 1.997 0 0 0 2.096 0L30 9.21z"/>
    </symbol>
    <symbol id="phone" viewBox="0 0 32 32">
      <path d="M2 6a4 4 0 0 1 4-4h1.829a2.5 2.5 0 0 1 2.425 1.894l1.474 5.898a2.5 2.5 0 0 1-.925 2.606l-1.725 1.294c-.179.134-.218.331-.168.468a15.048 15.048 0 0 0 8.93 8.93c.137.05.334.011.468-.168l1.294-1.725a2.5 2.5 0 0 1 2.606-.925l5.898 1.474A2.5 2.5 0 0 1 30 24.171V26a4 4 0 0 1-4 4h-3C11.402 30 2 20.598 2 9V6z"/>
    </symbol>
    <symbol id="place" viewBox="0 0 32 32">
      <path d="M15.386 29.801a22.77 22.77 0 0 1-1.525-.989 26.11 26.11 0 0 1-3.576-3.042C7.693 23.116 5 19.129 5 14 5 7.925 9.925 3 16 3s11 4.925 11 11c0 5.128-2.692 9.116-5.285 11.77a26.11 26.11 0 0 1-3.576 3.042 22.548 22.548 0 0 1-1.525.989l-.094.054-.038.021a1.012 1.012 0 0 1-.963-.001l-.037-.021-.094-.054zM16 18a4 4 0 1 0 0-8 4 4 0 0 0 0 8z"/>
    </symbol>
    <symbol id="questions-minus" viewBox="0 0 32 32">
      <path d="M25.333 14.667H6.666a1.334 1.334 0 0 0 0 2.668h18.667a1.334 1.334 0 0 0 0-2.668z"/>
    </symbol>
    <symbol id="questions-plus" viewBox="0 0 32 32">
      <path d="M25.333 14.667h-8v-8a1.334 1.334 0 0 0-2.668 0v8h-8a1.334 1.334 0 0 0 0 2.668h8v8a1.334 1.334 0 0 0 2.668 0v-8h8a1.334 1.334 0 0 0 0-2.668z"/>
    </symbol>
    <symbol id="star" viewBox="0 0 32 32">
      <path d="M13.24 3.109C14.476 1 17.525 1 18.761 3.109l2.761 4.71a3.197 3.197 0 0 0 2.074 1.507l5.333 1.171c2.388.524 3.33 3.423 1.706 5.251l-3.626 4.082a3.2 3.2 0 0 0-.792 2.439l.534 5.433c.239 2.433-2.227 4.225-4.467 3.245l-5.002-2.187a3.203 3.203 0 0 0-2.564 0l-5.002 2.187c-2.24.979-4.706-.812-4.467-3.245l.534-5.433a3.204 3.204 0 0 0-.792-2.439l-3.626-4.082c-1.623-1.827-.681-4.727 1.706-5.251l5.333-1.171a3.2 3.2 0 0 0 2.074-1.507l2.761-4.71z"/>
    </symbol>
    <symbol id="twitter" viewBox="0 0 32 32">
      <path d="M10.067 29c12.072 0 18.678-10.004 18.678-18.677 0-.281-.006-.569-.019-.85A13.31 13.31 0 0 0 32 6.074c-1.197.532-2.467.88-3.768 1.031a6.602 6.602 0 0 0 2.887-3.631 13.2 13.2 0 0 1-4.168 1.593 6.57 6.57 0 0 0-7.888-1.291 6.573 6.573 0 0 0-3.304 7.278A18.65 18.65 0 0 1 2.23 4.199c-.838 1.445-1.095 3.155-.717 4.782s1.36 3.05 2.748 3.979a6.57 6.57 0 0 1-2.974-.819v.081a6.56 6.56 0 0 0 5.268 6.438 6.532 6.532 0 0 1-2.962.113 6.577 6.577 0 0 0 6.13 4.563A13.169 13.169 0 0 1 0 26.053a18.625 18.625 0 0 0 10.067 2.949z"/>
    </symbol>
  </defs>
</svg>